<?xml version="1.0" encoding="UTF-8"?>
<svg xmlns="http://www.w3.org/2000/svg" style="display: none;">
  <defs>
    <!-- WARRIOR - Male, Heavy Armor, Sword & Shield -->
    <symbol id="char-warrior" viewBox="0 0 200 240">
      <ellipse cx="100" cy="225" rx="60" ry="12" fill="#000" opacity="0.3"/>
      <path d="M70 80 Q50 150 60 210 L140 210 Q150 150 130 80 Z" fill="#8B0000"/>
      <rect x="70" y="160" width="25" height="55" rx="3" fill="#4A5568" stroke="#2D3748" stroke-width="2"/>
      <rect x="105" y="160" width="25" height="55" rx="3" fill="#4A5568" stroke="#2D3748" stroke-width="2"/>
      <circle cx="82.5" cy="175" r="8" fill="#718096"/>
      <circle cx="117.5" cy="175" r="8" fill="#718096"/>
      <path d="M68 210 L72 225 L93 225 L97 210 Z" fill="#2D3748"/>
      <path d="M103 210 L107 225 L128 225 L132 210 Z" fill="#2D3748"/>
      <path d="M65 80 L60 160 L140 160 L135 80 Q100 70 65 80 Z" fill="#718096" stroke="#4A5568" stroke-width="2"/>
      <rect x="85" y="95" width="30" height="40" rx="5" fill="#4A5568"/>
      <circle cx="100" cy="115" r="10" fill="#D4A853"/>
      <line x1="90" y1="140" x2="110" y2="140" stroke="#4A5568" stroke-width="2"/>
      <line x1="90" y1="148" x2="110" y2="148" stroke="#4A5568" stroke-width="2"/>
      <circle cx="55" cy="90" r="18" fill="#4A5568" stroke="#2D3748" stroke-width="2"/>
      <rect x="42" y="105" width="16" height="50" rx="4" fill="#718096"/>
      <rect x="40" y="145" width="20" height="25" rx="3" fill="#4A5568"/>
      <circle cx="145" cy="90" r="18" fill="#4A5568" stroke="#2D3748" stroke-width="2"/>
      <rect x="142" y="105" width="16" height="50" rx="4" fill="#718096"/>
      <rect x="140" y="145" width="20" height="25" rx="3" fill="#4A5568"/>
      <g transform="translate(155, 120) rotate(15)">
        <rect x="8" y="-30" width="4" height="90" fill="#C0C0C0" stroke="#718096" stroke-width="1"/>
        <rect x="2" y="55" width="16" height="6" rx="1" fill="#D4A853"/>
        <rect x="5" y="61" width="10" height="8" fill="#8B6914"/>
        <path d="M10 -30 L6 -45 L14 -45 Z" fill="#C0C0C0"/>
        <rect x="-2" y="50" width="24" height="5" rx="1" fill="#D4A853"/>
      </g>
      <ellipse cx="35" cy="140" rx="22" ry="30" fill="#4A5568" stroke="#D4A853" stroke-width="3"/>
      <ellipse cx="35" cy="140" rx="12" ry="18" fill="#2D3748"/>
      <rect x="32" y="138" width="6" height="4" fill="#D4A853"/>
      <circle cx="100" cy="50" r="28" fill="#E8C4A0"/>
      <path d="M72 45 Q100 15 128 45 L128 55 Q100 65 72 55 Z" fill="#4A5568" stroke="#2D3748" stroke-width="2"/>
      <rect x="70" y="45" width="60" height="15" rx="3" fill="#718096"/>
      <path d="M85 20 L100 5 L115 20" fill="#8B0000"/>
      <circle cx="100" cy="12" r="5" fill="#D4A853"/>
      <circle cx="90" cy="52" r="4" fill="#2D3748"/>
      <circle cx="110" cy="52" r="4" fill="#2D3748"/>
      <circle cx="91" cy="51" r="1.5" fill="#FFF"/>
      <circle cx="111" cy="51" r="1.5" fill="#FFF"/>
      <path d="M94 62 Q100 66 106 62" stroke="#C08060" stroke-width="2" fill="none"/>
      <path d="M85 48 L90 55" stroke="#8B4513" stroke-width="1" opacity="0.6"/>
    </symbol>

    <!-- MAGE - Female, Robes, Staff -->
    <symbol id="char-mage" viewBox="0 0 200 240">
      <ellipse cx="100" cy="225" rx="55" ry="10" fill="#000" opacity="0.3"/>
      <circle cx="160" cy="100" r="20" fill="#9B59B6" opacity="0.2"/>
      <path d="M70 100 L55 215 L145 215 L130 100 Z" fill="#6B3490"/>
      <path d="M70 100 Q100 110 130 100 L130 215 L70 215 Z" fill="#9B59B6"/>
      <path d="M85 120 L80 200" stroke="#6B3490" stroke-width="2" opacity="0.5"/>
      <path d="M115 120 L120 200" stroke="#6B3490" stroke-width="2" opacity="0.5"/>
      <rect x="75" y="75" width="50" height="50" rx="5" fill="#9B59B6"/>
      <rect x="75" y="75" width="50" height="8" fill="#D4A853"/>
      <rect x="75" y="117" width="50" height="8" fill="#D4A853"/>
      <circle cx="100" cy="100" r="8" fill="#3498DB"/>
      <ellipse cx="60" cy="95" rx="12" ry="25" fill="#9B59B6"/>
      <ellipse cx="140" cy="95" rx="12" ry="25" fill="#9B59B6"/>
      <circle cx="55" cy="115" r="8" fill="#E8C4A0"/>
      <circle cx="145" cy="115" r="8" fill="#E8C4A0"/>
      <rect x="152" y="40" width="6" height="150" fill="#5D4037" rx="2"/>
      <path d="M145 40 L155 20 L165 40 L155 55 Z" fill="#3498DB" stroke="#5DADE2" stroke-width="1"/>
      <ellipse cx="155" cy="40" rx="8" ry="12" fill="#85C1E9" opacity="0.5"/>
      <circle cx="155" cy="35" r="15" fill="#3498DB" opacity="0.3"/>
      <circle cx="100" cy="50" r="26" fill="#E8C4A0"/>
      <path d="M74 45 Q70 80 65 110 L75 110 Q80 80 82 50" fill="#2C3E50"/>
      <path d="M126 45 Q130 80 135 110 L125 110 Q120 80 118 50" fill="#2C3E50"/>
      <path d="M74 35 Q85 25 100 28 Q115 25 126 35" fill="#2C3E50"/>
      <path d="M60 35 L100 -15 L140 35 Q100 45 60 35 Z" fill="#6B3490"/>
      <ellipse cx="100" cy="35" rx="42" ry="8" fill="#9B59B6"/>
      <ellipse cx="100" cy="30" rx="35" ry="5" fill="#D4A853"/>
      <circle cx="100" cy="5" r="6" fill="#3498DB"/>
      <ellipse cx="90" cy="52" rx="5" ry="6" fill="#2D3748"/>
      <ellipse cx="110" cy="52" rx="5" ry="6" fill="#2D3748"/>
      <circle cx="91" cy="51" r="2" fill="#FFF"/>
      <circle cx="111" cy="51" r="2" fill="#FFF"/>
      <path d="M96 65 Q100 68 104 65" stroke="#C08060" stroke-width="1.5" fill="none"/>
      <ellipse cx="85" cy="60" rx="4" ry="2" fill="#E74C3C" opacity="0.2"/>
      <ellipse cx="115" cy="60" rx="4" ry="2" fill="#E74C3C" opacity="0.2"/>
      <circle cx="160" cy="90" r="3" fill="#F4D03F"/>
      <circle cx="170" cy="110" r="2" fill="#85C1E9"/>
      <circle cx="150" cy="120" r="2.5" fill="#9B59B6"/>
    </symbol>

    <!-- ARCHER - Female, Green hood, Bow -->
    <symbol id="char-archer" viewBox="0 0 200 240">
      <ellipse cx="100" cy="225" rx="50" ry="10" fill="#000" opacity="0.3"/>
      <path d="M75 85 L60 200 L140 200 L125 85 Z" fill="#1E5631"/>
      <path d="M75 85 Q100 95 125 85 L125 200 L75 200 Z" fill="#27AE60"/>
      <rect x="75" y="165" width="20" height="50" rx="3" fill="#5D4037"/>
      <rect x="105" y="165" width="20" height="50" rx="3" fill="#5D4037"/>
      <path d="M73 210 L75 220 L93 220 L95 210 Z" fill="#3E2723"/>
      <path d="M105 210 L107 220 L125 220 L127 210 Z" fill="#3E2723"/>
      <rect x="78" y="85" width="44" height="55" rx="5" fill="#5D4037"/>
      <rect x="125" y="90" width="15" height="50" rx="3" fill="#8B4513"/>
      <line x1="128" y1="95" x2="128" y2="70" stroke="#C0C0C0" stroke-width="2"/>
      <line x1="132" y1="97" x2="132" y2="68" stroke="#C0C0C0" stroke-width="2"/>
      <line x1="136" y1="95" x2="136" y2="70" stroke="#C0C0C0" stroke-width="2"/>
      <path d="M125 70 L123 62 L131 62 Z" fill="#E74C3C"/>
      <path d="M129 68 L127 60 L135 60 Z" fill="#27AE60"/>
      <path d="M133 70 L131 62 L139 62 Z" fill="#3498DB"/>
      <rect x="60" y="90" width="15" height="45" rx="5" fill="#27AE60"/>
      <rect x="125" y="90" width="15" height="45" rx="5" fill="#27AE60"/>
      <rect x="58" y="125" width="18" height="15" rx="3" fill="#3E2723"/>
      <rect x="124" y="125" width="18" height="15" rx="3" fill="#3E2723"/>
      <path d="M45 60 Q25 100 45 140" stroke="#5D4037" stroke-width="4" fill="none"/>
      <path d="M45 60 L45 140" stroke="#D4A853" stroke-width="1"/>
      <line x1="45" y1="60" x2="45" y2="140" stroke="#C0C0C0" stroke-width="0.5"/>
      <circle cx="100" cy="55" r="25" fill="#E8C4A0"/>
      <path d="M70 50 Q100 15 130 50 L130 70 Q100 80 70 70 Z" fill="#1E5631"/>
      <ellipse cx="100" cy="50" rx="32" ry="8" fill="#27AE60"/>
      <circle cx="90" cy="58" r="4" fill="#2D3748"/>
      <circle cx="110" cy="58" r="4" fill="#2D3748"/>
      <circle cx="91" cy="57" r="1.5" fill="#FFF"/>
      <circle cx="111" cy="57" r="1.5" fill="#FFF"/>
      <path d="M96 68 Q100 71 104 68" stroke="#C08060" stroke-width="1.5" fill="none"/>
      <circle cx="88" cy="62" r="1" fill="#C08060" opacity="0.5"/>
      <circle cx="92" cy="64" r="1" fill="#C08060" opacity="0.5"/>
      <circle cx="108" cy="62" r="1" fill="#C08060" opacity="0.5"/>
      <circle cx="112" cy="64" r="1" fill="#C08060" opacity="0.5"/>
      <path d="M72 55 L65 50 L72 60" fill="#E8C4A0"/>
    </symbol>

    <!-- HEALER - Female, White robes -->
    <symbol id="char-healer" viewBox="0 0 200 240">
      <ellipse cx="100" cy="225" rx="50" ry="10" fill="#000" opacity="0.3"/>
      <ellipse cx="100" cy="25" rx="35" ry="8" fill="none" stroke="#F4D03F" stroke-width="2" opacity="0.6"/>
      <path d="M75 90 L60 215 L140 215 L125 90 Z" fill="#ECF0F1"/>
      <path d="M75 90 Q100 100 125 90 L125 215 L75 215 Z" fill="#FFF"/>
      <rect x="75" y="180" width="50" height="5" fill="#D4A853"/>
      <rect x="90" y="130" width="20" height="6" fill="#E74C3C"/>
      <rect x="97" y="123" width="6" height="20" fill="#E74C3C"/>
      <ellipse cx="62" cy="105" rx="10" ry="22" fill="#ECF0F1"/>
      <ellipse cx="138" cy="105" rx="10" ry="22" fill="#ECF0F1"/>
      <circle cx="58" cy="122" r="7" fill="#E8C4A0"/>
      <circle cx="142" cy="122" r="7" fill="#E8C4A0"/>
      <rect x="145" y="50" width="5" height="140" fill="#8B6914" rx="2"/>
      <path d="M145 80 Q155 85 145 90 Q135 95 145 100" stroke="#27AE60" stroke-width="3" fill="none"/>
      <circle cx="147.5" cy="50" r="12" fill="#F4D03F"/>
      <rect x="141" y="46" width="13" height="8" fill="#E74C3C"/>
      <rect x="143.5" y="43" width="8" height="14" fill="#E74C3C"/>
      <circle cx="100" cy="55" r="24" fill="#E8C4A0"/>
      <rect x="76" y="42" width="48" height="8" rx="2" fill="#FFF"/>
      <rect x="80" y="40" width="8" height="12" fill="#D4A853"/>
      <rect x="112" y="40" width="8" height="12" fill="#D4A853"/>
      <rect x="96" y="38" width="8" height="4" fill="#E74C3C"/>
      <path d="M76 50 Q70 70 68 85" stroke="#5D4037" stroke-width="8" fill="none" stroke-linecap="round"/>
      <path d="M124 50 Q130 70 132 85" stroke="#5D4037" stroke-width="8" fill="none" stroke-linecap="round"/>
      <ellipse cx="90" cy="58" rx="4" ry="5" fill="#2D3748"/>
      <ellipse cx="110" cy="58" rx="4" ry="5" fill="#2D3748"/>
      <circle cx="91" cy="57" r="1.5" fill="#FFF"/>
      <circle cx="111" cy="57" r="1.5" fill="#FFF"/>
      <path d="M94 68 Q100 72 106 68" stroke="#C08060" stroke-width="1.5" fill="none"/>
      <ellipse cx="85" cy="63" rx="4" ry="2" fill="#E74C3C" opacity="0.15"/>
      <ellipse cx="115" cy="63" rx="4" ry="2" fill="#E74C3C" opacity="0.15"/>
      <circle cx="100" cy="150" r="20" fill="#27AE60" opacity="0.1"/>
      <circle cx="80" cy="180" r="3" fill="#2ECC71" opacity="0.5"/>
      <circle cx="120" cy="190" r="2" fill="#2ECC71" opacity="0.5"/>
    </symbol>
  </defs>
</svg>
