<?xml version="1.0" encoding="UTF-8"?>
<svg xmlns="http://www.w3.org/2000/svg" style="display: none;">
  <defs>
    <!-- SLIME - API Tasks -->
    <symbol id="mon-slime" viewBox="0 0 100 100">
      <ellipse cx="50" cy="85" rx="35" ry="10" fill="#000" opacity="0.3"/>
      <ellipse cx="50" cy="60" rx="40" ry="35" fill="#9B59B6"/>
      <ellipse cx="50" cy="55" rx="32" ry="28" fill="#A855F7"/>
      <ellipse cx="35" cy="50" rx="10" ry="12" fill="#FFF" opacity="0.3"/>
      <circle cx="38" cy="48" r="6" fill="#FFF"/>
      <circle cx="62" cy="48" r="6" fill="#FFF"/>
      <circle cx="39" cy="49" r="3" fill="#2C1810"/>
      <circle cx="63" cy="49" r="3" fill="#2C1810"/>
      <ellipse cx="50" cy="65" rx="8" ry="5" fill="#6B3490"/>
      <!-- Code symbols floating -->
      <text x="20" y="30" fill="#D4A853" font-size="12" font-family="monospace">{ }</text>
      <text x="70" y="25" fill="#D4A853" font-size="10" font-family="monospace">[]</text>
    </symbol>

    <!-- GOBLIN - FE Tasks -->
    <symbol id="mon-goblin" viewBox="0 0 100 100">
      <ellipse cx="50" cy="90" rx="30" ry="8" fill="#000" opacity="0.3"/>
      <ellipse cx="50" cy="60" rx="25" ry="30" fill="#1ABC9C"/>
      <circle cx="50" cy="35" r="22" fill="#16A085"/>
      <polygon points="28,25 35,40 22,35" fill="#1ABC9C"/>
      <polygon points="72,25 65,40 78,35" fill="#1ABC9C"/>
      <circle cx="42" cy="35" r="6" fill="#FFF"/>
      <circle cx="58" cy="35" r="6" fill="#FFF"/>
      <circle cx="43" cy="36" r="3" fill="#C0392B"/>
      <circle cx="59" cy="36" r="3" fill="#C0392B"/>
      <path d="M45 50 Q50 55 55 50" stroke="#0D9488" fill="none" stroke-width="2"/>
      <rect x="22" y="55" width="10" height="25" rx="3" fill="#1ABC9C"/>
      <rect x="68" y="55" width="10" height="25" rx="3" fill="#1ABC9C"/>
      <!-- CSS symbol -->
      <text x="65" y="20" fill="#F4D03F" font-size="10" font-weight="bold">CSS</text>
    </symbol>

    <!-- BAT - UI/Design Tasks -->
    <symbol id="mon-bat" viewBox="0 0 100 100">
      <path d="M10 40 Q30 15 50 35 Q70 15 90 40 Q70 55 50 45 Q30 55 10 40" fill="#E67E22"/>
      <ellipse cx="50" cy="45" rx="15" ry="18" fill="#D35400"/>
      <circle cx="50" cy="25" r="3" fill="#F4D03F"/>
      <circle cx="45" cy="40" r="5" fill="#FFF"/>
      <circle cx="55" cy="40" r="5" fill="#FFF"/>
      <circle cx="46" cy="41" r="2.5" fill="#2C1810"/>
      <circle cx="56" cy="41" r="2.5" fill="#2C1810"/>
      <polygon points="47,52 50,58 53,52" fill="#C0392B"/>
      <!-- Design tools -->
      <circle cx="15" cy="25" r="4" fill="#F4D03F" opacity="0.6"/>
      <circle cx="85" cy="30" r="3" fill="#3498DB" opacity="0.6"/>
    </symbol>

    <!-- SPIDER - Testing Tasks -->
    <symbol id="mon-spider" viewBox="0 0 100 100">
      <ellipse cx="50" cy="85" rx="20" ry="6" fill="#000" opacity="0.3"/>
      <ellipse cx="50" cy="55" rx="18" ry="20" fill="#F1C40F"/>
      <circle cx="50" cy="38" r="15" fill="#D4AC0D"/>
      <circle cx="44" cy="36" r="4" fill="#000"/>
      <circle cx="56" cy="36" r="4" fill="#000"/>
      <circle cx="45" cy="35" r="1.5" fill="#C0392B"/>
      <circle cx="57" cy="35" r="1.5" fill="#C0392B"/>
      <!-- Legs -->
      <path d="M32 50 L20 40 L25 55" stroke="#D4AC0D" stroke-width="3" fill="none"/>
      <path d="M68 50 L80 40 L75 55" stroke="#D4AC0D" stroke-width="3" fill="none"/>
      <path d="M32 60 L18 65 L28 70" stroke="#D4AC0D" stroke-width="3" fill="none"/>
      <path d="M68 60 L82 65 L72 70" stroke="#D4AC0D" stroke-width="3" fill="none"/>
      <!-- Web -->
      <path d="M20 20 L30 35 M80 20 L70 35 M50 10 L50 25" stroke="#FFF" stroke-width="0.5" opacity="0.4"/>
      <circle cx="50" cy="20" r="15" fill="none" stroke="#FFF" stroke-width="0.3" opacity="0.3"/>
    </symbol>

    <!-- GHOST - AC/Requirements -->
    <symbol id="mon-ghost" viewBox="0 0 100 100">
      <ellipse cx="50" cy="85" rx="25" ry="6" fill="#000" opacity="0.3"/>
      <path d="M25 50 Q25 20 50 20 Q75 20 75 50 L75 75 Q65 65 50 75 Q35 65 25 75 Z" fill="#3498DB" opacity="0.7"/>
      <circle cx="40" cy="45" r="6" fill="#FFF" opacity="0.8"/>
      <circle cx="60" cy="45" r="6" fill="#FFF" opacity="0.8"/>
      <circle cx="41" cy="46" r="3" fill="#2C1810"/>
      <circle cx="61" cy="46" r="3" fill="#2C1810"/>
      <ellipse cx="50" cy="60" rx="6" ry="4" fill="#2C1810"/>
      <!-- Document symbol -->
      <rect x="65" y="25" width="12" height="15" fill="#FFF" opacity="0.5"/>
      <line x1="67" y1="28" x2="75" y2="28" stroke="#3498DB" stroke-width="1"/>
      <line x1="67" y1="32" x2="75" y2="32" stroke="#3498DB" stroke-width="1"/>
    </symbol>

    <!-- DRAGON BOSS -->
    <symbol id="mon-dragon" viewBox="0 0 200 200">
      <ellipse cx="100" cy="175" rx="70" ry="15" fill="#000" opacity="0.4"/>
      <!-- Body -->
      <ellipse cx="100" cy="120" rx="50" ry="60" fill="#C0392B"/>
      <ellipse cx="100" cy="110" rx="40" ry="50" fill="#E74C3C"/>
      <!-- Chest scales -->
      <ellipse cx="100" cy="100" rx="25" ry="30" fill="#922B21"/>
      <circle cx="90" cy="90" r="5" fill="#F4D03F" opacity="0.5"/>
      <circle cx="110" cy="95" r="5" fill="#F4D03F" opacity="0.5"/>
      <circle cx="100" cy="105" r="5" fill="#F4D03F" opacity="0.5"/>
      <!-- Head -->
      <ellipse cx="100" cy="50" rx="35" ry="30" fill="#C0392B"/>
      <path d="M65 35 Q100 15 135 35 L135 50 Q100 40 65 50 Z" fill="#922B21"/>
      <!-- Horns -->
      <path d="M70 30 L55 5 L75 25" fill="#5D4037"/>
      <path d="M130 30 L145 5 L125 25" fill="#5D4037"/>
      <!-- Eyes -->
      <ellipse cx="85" cy="50" rx="8" ry="10" fill="#F1C40F"/>
      <ellipse cx="115" cy="50" rx="8" ry="10" fill="#F1C40F"/>
      <ellipse cx="85" cy="52" rx="4" ry="6" fill="#000"/>
      <ellipse cx="115" cy="52" rx="4" ry="6" fill="#000"/>
      <circle cx="87" cy="50" r="2" fill="#FFF"/>
      <circle cx="117" cy="50" r="2" fill="#FFF"/>
      <!-- Fire breath -->
      <path d="M135 70 Q160 60 170 80 Q160 100 135 90" fill="#E74C3C"/>
      <path d="M140 75 Q155 70 160 80 Q155 90 140 85" fill="#F39C12"/>
      <!-- Wings -->
      <path d="M50 80 Q10 60 5 100 Q20 130 50 110" fill="#922B21"/>
      <path d="M150 80 Q190 60 195 100 Q180 130 150 110" fill="#922B21"/>
      <!-- HP Bar -->
      <rect x="50" y="10" width="100" height="12" rx="6" fill="#000" stroke="#D4A853" stroke-width="2"/>
      <rect x="52" y="12" width="46" height="8" rx="4" fill="#C0392B"/>
    </symbol>

    <!-- MINION - Small generic -->
    <symbol id="mon-minion" viewBox="0 0 60 60">
      <ellipse cx="30" cy="52" rx="15" ry="5" fill="#000" opacity="0.3"/>
      <circle cx="30" cy="35" r="20" fill="#9B59B6"/>
      <circle cx="30" cy="30" r="15" fill="#A855F7"/>
      <circle cx="22" cy="28" r="5" fill="#FFF"/>
      <circle cx="38" cy="28" r="5" fill="#FFF"/>
      <circle cx="23" cy="29" r="2.5" fill="#2C1810"/>
      <circle cx="39" cy="29" r="2.5" fill="#2C1810"/>
      <path d="M25 40 Q30 43 35 40" stroke="#6B3490" fill="none" stroke-width="2"/>
    </symbol>
  </defs>
</svg>
